<svg height="512pt" viewBox="0 0 512 512" width="512pt" xmlns="http://www.w3.org/2000/svg"><path d="m102.730469 314.90625c-56.644531 0-102.730469-46.144531-102.730469-102.867188 0-22.992187 14.953125-61.460937 45.714844-117.605468 21.941406-40.042969 43.511718-73.519532 44.421875-74.925782l12.59375-19.507812 12.597656 19.507812c.90625 1.40625 22.480469 34.882813 44.421875 74.925782 30.761719 56.144531 45.714844 94.613281 45.714844 117.605468 0 56.722657-46.085938 102.867188-102.734375 102.867188zm0 0" fill="#00d7df"/><path d="m159.75 94.433594c-21.941406-40.042969-43.511719-73.519532-44.421875-74.925782l-12.597656-19.507812v314.90625c56.648437 0 102.734375-46.144531 102.734375-102.863281 0-22.996094-14.953125-61.464844-45.714844-117.609375zm0 0" fill="#00b6be"/><path d="m409.269531 314.90625c-56.648437 0-102.734375-46.144531-102.734375-102.863281 0-22.996094 14.953125-61.464844 45.714844-117.609375 21.941406-40.042969 43.515625-73.519532 44.421875-74.925782l12.597656-19.507812 12.59375 19.507812c.910157 1.40625 22.480469 34.882813 44.421875 74.925782 30.761719 56.144531 45.714844 94.613281 45.714844 117.605468 0 56.722657-46.085938 102.867188-102.730469 102.867188zm0 0" fill="#545ac3"/><path d="m466.285156 94.433594c-21.941406-40.042969-43.511718-73.519532-44.421875-74.925782l-12.59375-19.507812v314.90625c56.644531 0 102.730469-46.144531 102.730469-102.867188 0-22.992187-14.953125-61.460937-45.714844-117.605468zm0 0" fill="#404aa2"/><path d="m256 511.671875c-56.648438 0-102.730469-46.144531-102.730469-102.863281 0-22.996094 14.953125-61.464844 45.714844-117.609375 21.941406-40.042969 43.511719-73.519531 44.417969-74.925781l12.597656-19.507813 12.597656 19.507813c.90625 1.40625 22.476563 34.882812 44.417969 74.925781 30.761719 56.144531 45.714844 94.613281 45.714844 117.609375 0 56.71875-46.082031 102.863281-102.730469 102.863281zm0 0" fill="#00aadf"/><path d="m313.015625 291.199219c-21.941406-40.042969-43.511719-73.519531-44.417969-74.925781l-12.597656-19.507813v314.90625c56.648438 0 102.730469-46.144531 102.730469-102.863281 0-22.996094-14.953125-61.464844-45.714844-117.609375zm0 0" fill="#007fc5"/></svg>