<svg height="512pt" viewBox="0 -17 512 511" width="512pt" xmlns="http://www.w3.org/2000/svg"><path d="m435.996094 60.5c-12.34375 0-24.425782 3.007812-35.210938 8.644531-19.148437-21.753906-46.636718-34.359375-76.214844-34.359375-13.050781 0-25.933593 2.507813-37.945312 7.328125-18.960938-25.992187-49.183594-41.613281-82.054688-41.613281-28.757812 0-55.914062 12.160156-75.046874 33.097656-11.449219-4.859375-23.808594-7.382812-36.378907-7.382812-51.050781 0-92.835937 41.519531-93.144531 92.550781v.113281c0 46.199219 37.328125 85.054688 85.089844 85.054688h359.136718c37.546876 0 67.773438-30.628906 67.773438-67.808594v-.011719c0-.027343 0-.054687 0-.082031-.21875-41.648438-34.3125-75.53125-76.003906-75.53125zm0 0"/><path d="m50.289062 411.921875c-8.835937 0-16.003906 7.164063-16.003906 16.003906v34.285157c0 8.835937 7.167969 16.003906 16.003906 16.003906 8.839844 0 16.003907-7.167969 16.003907-16.003906v-34.285157c0-8.839843-7.164063-16.003906-16.003907-16.003906zm0 0"/><path d="m256 411.921875c-8.839844 0-16.003906 7.164063-16.003906 16.003906v34.285157c0 8.835937 7.164062 16.003906 16.003906 16.003906s16.003906-7.167969 16.003906-16.003906v-34.285157c0-8.839843-7.164062-16.003906-16.003906-16.003906zm0 0"/><path d="m153.144531 411.921875c-8.839843 0-16.003906 7.164063-16.003906 16.003906v34.285157c0 8.835937 7.164063 16.003906 16.003906 16.003906 8.839844 0 16.003907-7.167969 16.003907-16.003906v-34.285157c0-8.839843-7.164063-16.003906-16.003907-16.003906zm0 0"/><path d="m50.289062 240.496094c-8.835937 0-16.003906 7.164062-16.003906 16.003906v34.285156c0 8.839844 7.167969 16.003906 16.003906 16.003906 8.839844 0 16.003907-7.164062 16.003907-16.003906v-34.285156c0-8.839844-7.164063-16.003906-16.003907-16.003906zm0 0"/><path d="m256 240.496094c-8.839844 0-16.003906 7.164062-16.003906 16.003906v34.285156c0 8.839844 7.164062 16.003906 16.003906 16.003906s16.003906-7.164062 16.003906-16.003906v-34.285156c0-8.839844-7.164062-16.003906-16.003906-16.003906zm0 0"/><path d="m153.144531 240.496094c-8.839843 0-16.003906 7.164062-16.003906 16.003906v34.285156c0 8.839844 7.164063 16.003906 16.003906 16.003906 8.839844 0 16.003907-7.164062 16.003907-16.003906v-34.285156c0-8.839844-7.164063-16.003906-16.003907-16.003906zm0 0"/><path d="m101.71875 326.207031c-8.839844 0-16.003906 7.167969-16.003906 16.003907v34.285156c0 8.839844 7.164062 16.003906 16.003906 16.003906 8.835938 0 16.003906-7.164062 16.003906-16.003906v-34.285156c0-8.835938-7.167968-16.003907-16.003906-16.003907zm0 0"/><path d="m204.570312 326.207031c-8.835937 0-16.003906 7.167969-16.003906 16.003907v34.285156c0 8.839844 7.167969 16.003906 16.003906 16.003906 8.839844 0 16.007813-7.164062 16.007813-16.003906v-34.285156c0-8.835938-7.167969-16.003907-16.007813-16.003907zm0 0"/><path d="m358.855469 411.921875c-8.839844 0-16.003907 7.164063-16.003907 16.003906v34.285157c0 8.835937 7.164063 16.003906 16.003907 16.003906 8.839843 0 16.003906-7.167969 16.003906-16.003906v-34.285157c0-8.839843-7.164063-16.003906-16.003906-16.003906zm0 0"/><path d="m461.710938 411.921875c-8.839844 0-16.003907 7.164063-16.003907 16.003906v34.285157c0 8.835937 7.164063 16.003906 16.003907 16.003906 8.835937 0 16.003906-7.167969 16.003906-16.003906v-34.285157c0-8.839843-7.164063-16.003906-16.003906-16.003906zm0 0"/><path d="m358.855469 240.496094c-8.839844 0-16.003907 7.164062-16.003907 16.003906v34.285156c0 8.839844 7.164063 16.003906 16.003907 16.003906 8.839843 0 16.003906-7.164062 16.003906-16.003906v-34.285156c0-8.839844-7.164063-16.003906-16.003906-16.003906zm0 0"/><path d="m461.710938 240.496094c-8.839844 0-16.003907 7.164062-16.003907 16.003906v34.285156c0 8.839844 7.164063 16.003906 16.003907 16.003906 8.835937 0 16.003906-7.164062 16.003906-16.003906v-34.285156c0-8.839844-7.164063-16.003906-16.003906-16.003906zm0 0"/><path d="m307.429688 326.207031c-8.839844 0-16.007813 7.167969-16.007813 16.003907v34.285156c0 8.839844 7.167969 16.003906 16.007813 16.003906 8.835937 0 16.003906-7.164062 16.003906-16.003906v-34.285156c0-8.835938-7.167969-16.003907-16.003906-16.003907zm0 0"/><path d="m410.28125 326.207031c-8.835938 0-16.003906 7.167969-16.003906 16.003907v34.285156c0 8.839844 7.167968 16.003906 16.003906 16.003906 8.839844 0 16.003906-7.164062 16.003906-16.003906v-34.285156c0-8.835938-7.164062-16.003907-16.003906-16.003907zm0 0"/></svg>