<svg height="512pt" viewBox="0 0 512 512.00025" width="512pt" xmlns="http://www.w3.org/2000/svg"><path d="m121 225v122c0 8.402344-6.597656 15-15 15s-15-6.597656-15-15v-122c0-8.402344 6.597656-15 15-15s15 6.597656 15 15zm0 0" fill="#3e5959"/><path d="m121 225v122c0 8.402344-6.597656 15-15 15v-152c8.402344 0 15 6.597656 15 15zm0 0" fill="#384949"/><path d="m136 347v150h-60v-150c0-8.402344 6.597656-15 15-15h30c8.402344 0 15 6.597656 15 15zm0 0" fill="#7ed8f6"/><path d="m136 347v150h-30v-165h15c8.402344 0 15 6.597656 15 15zm0 0" fill="#6aa9ff"/><path d="m121 15v30c0 8.402344-6.597656 15-15 15s-15-6.597656-15-15v-30c0-8.402344 6.597656-15 15-15s15 6.597656 15 15zm0 0" fill="#3e5959"/><path d="m106 60v-60c8.402344 0 15 6.597656 15 15v30c0 8.402344-6.597656 15-15 15zm0 0" fill="#384949"/><path d="m179.5 98.402344h-148l31-60c2.699219-5.101563 7.800781-8.402344 13.5-8.402344h60c5.699219 0 10.800781 3.300781 13.5 8.402344zm0 0" fill="#ffb739"/><path d="m179.5 98.402344h-73.5v-68.402344h30c5.699219 0 10.800781 3.300781 13.5 8.402344zm0 0" fill="#fb992d"/><path d="m180.398438 108.601562-30 120c-1.5 6.601563-7.5 11.398438-14.398438 11.398438h-60c-6.898438 0-12.898438-4.796875-14.398438-11.398438l-31-120zm0 0" fill="#ffb739"/><path d="m180.398438 108.601562-30 120c-1.5 6.601563-7.5 11.398438-14.398438 11.398438h-30v-131.398438zm0 0" fill="#fb992d"/><path d="m225.984375 512c-2.253906 0-4.539063-.511719-6.691406-1.582031-7.414063-3.707031-10.417969-12.714844-6.710938-20.125l30-60c3.707031-7.414063 12.730469-10.386719 20.128907-6.710938 7.410156 3.707031 10.414062 12.714844 6.707031 20.128907l-30 60c-2.636719 5.257812-7.925781 8.289062-13.433594 8.289062zm0 0" fill="#3e5959"/><path d="m467.015625 512c-5.507813 0-10.796875-3.03125-13.433594-8.289062l-30-60c-3.707031-7.414063-.703125-16.421876 6.710938-20.128907 7.394531-3.675781 16.417969-.703125 20.125 6.710938l30 60c3.707031 7.410156.703125 16.417969-6.707031 20.125-2.15625 1.070312-4.441407 1.582031-6.695313 1.582031zm0 0" fill="#384949"/><path d="m256 452c-8.289062 0-15-6.707031-15-15v-60c0-8.289062 6.710938-15 15-15 8.292969 0 15 6.710938 15 15v60c0 8.292969-6.707031 15-15 15zm0 0" fill="#3e5959"/><path d="m437 452c-8.289062 0-15-6.707031-15-15v-60c0-8.289062 6.710938-15 15-15 8.292969 0 15 6.710938 15 15v60c0 8.292969-6.707031 15-15 15zm0 0" fill="#384949"/><g fill="#d1d6f2"><path d="m270.972656 75c0 8.285156-6.71875 15-15 15-8.285156 0-15-6.714844-15-15s6.714844-15 15-15c8.28125 0 15 6.714844 15 15zm0 0"/><path d="m330.972656 135c0 8.285156-6.71875 15-15 15-8.285156 0-15-6.714844-15-15s6.714844-15 15-15c8.28125 0 15 6.714844 15 15zm0 0"/><path d="m330.972656 15c0 8.285156-6.71875 15-15 15-8.285156 0-15-6.714844-15-15s6.714844-15 15-15c8.28125 0 15 6.714844 15 15zm0 0"/></g><path d="m390.972656 75c0 8.285156-6.71875 15-15 15-8.285156 0-15-6.714844-15-15s6.714844-15 15-15c8.28125 0 15 6.714844 15 15zm0 0" fill="#bbc4ea"/><path d="m451.972656 135c0 8.285156-6.71875 15-15 15-8.285156 0-15-6.714844-15-15s6.714844-15 15-15c8.28125 0 15 6.714844 15 15zm0 0" fill="#bbc4ea"/><path d="m390.972656 195c0 8.285156-6.71875 15-15 15-8.285156 0-15-6.714844-15-15s6.714844-15 15-15c8.28125 0 15 6.714844 15 15zm0 0" fill="#bbc4ea"/><path d="m330.972656 255c0 8.285156-6.71875 15-15 15-8.285156 0-15-6.714844-15-15s6.714844-15 15-15c8.28125 0 15 6.714844 15 15zm0 0" fill="#d1d6f2"/><path d="m511.972656 195c0 8.285156-6.71875 15-15 15-8.285156 0-15-6.714844-15-15s6.714844-15 15-15c8.28125 0 15 6.714844 15 15zm0 0" fill="#bbc4ea"/><path d="m451.972656 255c0 8.285156-6.71875 15-15 15-8.285156 0-15-6.714844-15-15s6.714844-15 15-15c8.28125 0 15 6.714844 15 15zm0 0" fill="#bbc4ea"/><path d="m266.605469 154.394531c-5.859375-5.859375-15.351563-5.859375-21.210938 0l-4.394531 4.394531-4.394531-4.394531c-5.859375-5.859375-15.351563-5.859375-21.210938 0s-5.859375 15.351563 0 21.210938l4.394531 4.394531-4.394531 4.394531c-5.859375 5.859375-5.859375 15.351563 0 21.210938s15.351563 5.859375 21.210938 0l4.394531-4.394531 4.394531 4.394531c5.859375 5.859375 15.351563 5.859375 21.210938 0s5.859375-15.351563 0-21.210938l-4.394531-4.394531 4.394531-4.394531c5.859375-5.859375 5.859375-15.351563 0-21.210938zm0 0" fill="#beebfa"/><path d="m473.210938 30 4.394531-4.394531c5.859375-5.859375 5.859375-15.351563 0-21.210938-5.859375-5.859375-15.351563-5.859375-21.210938 0l-4.394531 4.394531-4.394531-4.394531c-5.859375-5.859375-15.351563-5.859375-21.210938 0s-5.859375 15.351563 0 21.210938l4.394531 4.394531-4.394531 4.394531c-5.859375 5.859375-5.859375 15.351563 0 21.210938s15.351563 5.859375 21.210938 0l4.394531-4.394531 4.394531 4.394531c5.859375 5.859375 15.351563 5.859375 21.210938 0s5.859375-15.351563 0-21.210938zm0 0" fill="#9ee2f8"/><path d="m512 437c0 8.402344-6.597656 15-15 15h-301c-8.402344 0-15-6.597656-15-15s6.597656-15 15-15h301c8.402344 0 15 6.597656 15 15zm0 0" fill="#ffb739"/><path d="m467 332h-241c-8.402344 0-15 6.597656-15 15v30c0 8.402344 6.597656 15 15 15h241c8.402344 0 15-6.597656 15-15v-30c0-8.402344-6.597656-15-15-15zm0 0" fill="#ffb739"/><path d="m467 392h-121v-60h121c8.402344 0 15 6.597656 15 15v30c0 8.402344-6.597656 15-15 15zm0 0" fill="#f67a21"/><path d="m497 452h-151v-30h151c8.402344 0 15 6.597656 15 15s-6.597656 15-15 15zm0 0" fill="#f67a21"/><path d="m512 497c0 8.402344-6.597656 15-15 15h-482c-8.402344 0-15-6.597656-15-15s6.597656-15 15-15h482c8.402344 0 15 6.597656 15 15zm0 0" fill="#beebfa"/><path d="m512 497c0 8.402344-6.597656 15-15 15h-151v-30h151c8.402344 0 15 6.597656 15 15zm0 0" fill="#9ee2f8"/><path d="m211 105c0 8.402344-6.597656 15-15 15h-181c-8.402344 0-15-6.597656-15-15s6.597656-15 15-15h181c8.402344 0 15 6.597656 15 15zm0 0" fill="#4a696f"/><path d="m211 105c0 8.402344-6.597656 15-15 15h-90v-30h90c8.402344 0 15 6.597656 15 15zm0 0" fill="#3e5959"/></svg>