<svg height="480pt" viewBox="0 0 480 480.01784" width="480pt" xmlns="http://www.w3.org/2000/svg"><path d="m333.992188 128.019531c1.273437-4.335937 1.953124-8.820312 2.015624-13.335937-1.054687-30.464844-26.574218-54.324219-57.039062-53.328125-6.144531.066406-12.242188 1.074219-18.078125 2.992187-12.351563-34.371094-45.242187-57.03125-81.753906-56.328125-38.644531-.84375-72.9375 24.640625-83.28125 61.886719-9.296875-5.605469-19.949219-8.5625-30.804688-8.550781-30.46875-.996094-55.984375 22.863281-57.042969 53.328125.066407 4.515625.742188 9 2.015626 13.335937zm0 0" fill="#7fcac9"/><path d="m470.335938 168.019531c1.054687-3.460937 1.621093-7.050781 1.671874-10.664062-1.34375-24.816407-22.480468-43.886719-47.304687-42.671875-5.085937.050781-10.140625.859375-14.988281 2.398437-10.769532-27.867187-37.933594-45.921875-67.792969-45.0625-31.578125-1.035156-59.90625 19.273438-69.066406 49.511719-7.757813-4.503906-16.570313-6.867188-25.542969-6.847656-24.820312-1.214844-45.960938 17.855468-47.304688 42.671875.054688 3.613281.617188 7.203125 1.671876 10.664062zm0 0" fill="#32b1cc"/><path d="m8.007812 432.019531s64 8 96 8l120-8s88 8 104 8l144-8v40h-464zm0 0" fill="#87cee9"/><g fill="#7fcac9"><path d="m48.007812 288.019531c0 13.253907-10.742187 24-24 24-13.253906 0-23.9999995-10.746093-23.9999995-24 0-13.257812 10.7460935-24 23.9999995-24 13.257813 0 24 10.742188 24 24zm0 0"/><path d="m112.007812 224.019531c0 13.253907-10.742187 24-24 24-13.253906 0-24-10.746093-24-24 0-13.257812 10.746094-24 24-24 13.257813 0 24 10.742188 24 24zm0 0"/><path d="m120.007812 336.019531c0 13.253907-10.742187 24-24 24-13.253906 0-24-10.746093-24-24 0-13.257812 10.746094-24 24-24 13.257813 0 24 10.742188 24 24zm0 0"/><path d="m64.007812 400.019531c0 13.253907-10.742187 24-24 24-13.253906 0-24-10.746093-24-24 0-13.257812 10.746094-24 24-24 13.257813 0 24 10.742188 24 24zm0 0"/><path d="m192.007812 288.019531c0 13.253907-10.742187 24-24 24-13.253906 0-24-10.746093-24-24 0-13.257812 10.746094-24 24-24 13.257813 0 24 10.742188 24 24zm0 0"/><path d="m256.007812 224.019531c0 13.253907-10.742187 24-24 24-13.253906 0-24-10.746093-24-24 0-13.257812 10.746094-24 24-24 13.257813 0 24 10.742188 24 24zm0 0"/><path d="m264.007812 336.019531c0 13.253907-10.742187 24-24 24-13.253906 0-24-10.746093-24-24 0-13.257812 10.746094-24 24-24 13.257813 0 24 10.742188 24 24zm0 0"/><path d="m208.007812 400.019531c0 13.253907-10.742187 24-24 24-13.253906 0-24-10.746093-24-24 0-13.257812 10.746094-24 24-24 13.257813 0 24 10.742188 24 24zm0 0"/><path d="m336.007812 288.019531c0 13.253907-10.742187 24-24 24-13.253906 0-24-10.746093-24-24 0-13.257812 10.746094-24 24-24 13.257813 0 24 10.742188 24 24zm0 0"/><path d="m400.007812 224.019531c0 13.253907-10.742187 24-24 24-13.253906 0-24-10.746093-24-24 0-13.257812 10.746094-24 24-24 13.257813 0 24 10.742188 24 24zm0 0"/><path d="m408.007812 336.019531c0 13.253907-10.742187 24-24 24-13.253906 0-24-10.746093-24-24 0-13.257812 10.746094-24 24-24 13.257813 0 24 10.742188 24 24zm0 0"/><path d="m352.007812 400.019531c0 13.253907-10.742187 24-24 24-13.253906 0-24-10.746093-24-24 0-13.257812 10.746094-24 24-24 13.257813 0 24 10.742188 24 24zm0 0"/><path d="m480.007812 288.019531c0 13.253907-10.742187 24-24 24-13.253906 0-24-10.746093-24-24 0-13.257812 10.746094-24 24-24 13.257813 0 24 10.742188 24 24zm0 0"/><path d="m480.007812 400.019531c0 13.253907-10.742187 24-24 24-13.253906 0-24-10.746093-24-24 0-13.257812 10.746094-24 24-24 13.257813 0 24 10.742188 24 24zm0 0"/></g><path d="m480.007812 423.5625-152 8.457031c-15.464843 0-102.398437-7.890625-103.269531-8h-.632812l-120.097657 8c-31.136718 0-94.398437-7.859375-95.007812-7.9375l-8.9921875-1.128906v57.066406h479.9999995zm-16 40.457031h-448v-22.984375c18.875 2.183594 62.730469 6.984375 88.425782 6.984375h.101562l119.378906-8c8.582032.796875 88.34375 8 104.503907 8l135.589843-7.546875zm0 0"/><path d="m24.007812 312.019531c13.257813 0 24-10.746093 24-24 0-13.257812-10.742187-24-24-24-13.253906 0-23.9999995 10.742188-23.9999995 24 0 13.253907 10.7460935 24 23.9999995 24zm0-32c4.417969 0 8 3.578125 8 8 0 4.417969-3.582031 8-8 8-4.417968 0-8-3.582031-8-8 0-4.421875 3.582032-8 8-8zm0 0"/><path d="m112.007812 224.019531c0-13.257812-10.742187-24-24-24-13.253906 0-24 10.742188-24 24 0 13.253907 10.746094 24 24 24 13.257813 0 24-10.746093 24-24zm-32 0c0-4.421875 3.582032-8 8-8 4.417969 0 8 3.578125 8 8 0 4.417969-3.582031 8-8 8-4.417968 0-8-3.582031-8-8zm0 0"/><path d="m96.007812 360.019531c13.257813 0 24-10.746093 24-24 0-13.257812-10.742187-24-24-24-13.253906 0-24 10.742188-24 24 0 13.253907 10.746094 24 24 24zm0-32c4.417969 0 8 3.578125 8 8 0 4.417969-3.582031 8-8 8-4.417968 0-8-3.582031-8-8 0-4.421875 3.582032-8 8-8zm0 0"/><path d="m16.007812 400.019531c0 13.253907 10.746094 24 24 24 13.257813 0 24-10.746093 24-24 0-13.257812-10.742187-24-24-24-13.253906 0-24 10.742188-24 24zm32 0c0 4.417969-3.582031 8-8 8-4.417968 0-8-3.582031-8-8 0-4.421875 3.582032-8 8-8 4.417969 0 8 3.578125 8 8zm0 0"/><path d="m192.007812 288.019531c0-13.257812-10.742187-24-24-24-13.253906 0-24 10.742188-24 24 0 13.253907 10.746094 24 24 24 13.257813 0 24-10.746093 24-24zm-32 0c0-4.421875 3.582032-8 8-8 4.417969 0 8 3.578125 8 8 0 4.417969-3.582031 8-8 8-4.417968 0-8-3.582031-8-8zm0 0"/><path d="m256.007812 224.019531c0-13.257812-10.742187-24-24-24-13.253906 0-24 10.742188-24 24 0 13.253907 10.746094 24 24 24 13.257813 0 24-10.746093 24-24zm-32 0c0-4.421875 3.582032-8 8-8 4.417969 0 8 3.578125 8 8 0 4.417969-3.582031 8-8 8-4.417968 0-8-3.582031-8-8zm0 0"/><path d="m240.007812 360.019531c13.257813 0 24-10.746093 24-24 0-13.257812-10.742187-24-24-24-13.253906 0-24 10.742188-24 24 0 13.253907 10.746094 24 24 24zm0-32c4.417969 0 8 3.578125 8 8 0 4.417969-3.582031 8-8 8-4.417968 0-8-3.582031-8-8 0-4.421875 3.582032-8 8-8zm0 0"/><path d="m184.007812 424.019531c13.257813 0 24-10.746093 24-24 0-13.257812-10.742187-24-24-24-13.253906 0-24 10.742188-24 24 0 13.253907 10.746094 24 24 24zm0-32c4.417969 0 8 3.578125 8 8 0 4.417969-3.582031 8-8 8-4.417968 0-8-3.582031-8-8 0-4.421875 3.582032-8 8-8zm0 0"/><path d="m336.007812 288.019531c0-13.257812-10.742187-24-24-24-13.253906 0-24 10.742188-24 24 0 13.253907 10.746094 24 24 24 13.257813 0 24-10.746093 24-24zm-32 0c0-4.421875 3.582032-8 8-8 4.417969 0 8 3.578125 8 8 0 4.417969-3.582031 8-8 8-4.417968 0-8-3.582031-8-8zm0 0"/><path d="m400.007812 224.019531c0-13.257812-10.742187-24-24-24-13.253906 0-24 10.742188-24 24 0 13.253907 10.746094 24 24 24 13.257813 0 24-10.746093 24-24zm-32 0c0-4.421875 3.582032-8 8-8 4.417969 0 8 3.578125 8 8 0 4.417969-3.582031 8-8 8-4.417968 0-8-3.582031-8-8zm0 0"/><path d="m384.007812 360.019531c13.257813 0 24-10.746093 24-24 0-13.257812-10.742187-24-24-24-13.253906 0-24 10.742188-24 24 0 13.253907 10.746094 24 24 24zm0-32c4.417969 0 8 3.578125 8 8 0 4.417969-3.582031 8-8 8-4.417968 0-8-3.582031-8-8 0-4.421875 3.582032-8 8-8zm0 0"/><path d="m328.007812 424.019531c13.257813 0 24-10.746093 24-24 0-13.257812-10.742187-24-24-24-13.253906 0-24 10.742188-24 24 0 13.253907 10.746094 24 24 24zm0-32c4.417969 0 8 3.578125 8 8 0 4.417969-3.582031 8-8 8-4.417968 0-8-3.582031-8-8 0-4.421875 3.582032-8 8-8zm0 0"/><path d="m456.007812 264.019531c-13.253906 0-24 10.742188-24 24 0 13.253907 10.746094 24 24 24 13.257813 0 24-10.746093 24-24 0-13.257812-10.742187-24-24-24zm0 32c-4.417968 0-8-3.582031-8-8 0-4.421875 3.582032-8 8-8 4.417969 0 8 3.578125 8 8 0 4.417969-3.582031 8-8 8zm0 0"/><path d="m456.007812 376.019531c-13.253906 0-24 10.742188-24 24 0 13.253907 10.746094 24 24 24 13.257813 0 24-10.746093 24-24 0-13.257812-10.742187-24-24-24zm0 32c-4.417968 0-8-3.582031-8-8 0-4.421875 3.582032-8 8-8 4.417969 0 8 3.578125 8 8 0 4.417969-3.582031 8-8 8zm0 0"/><path d="m10.023438 136.019531h187.203124c-3.40625 6.597657-5.195312 13.910157-5.21875 21.335938.046876 4.363281.714844 8.695312 1.984376 12.871093.984374 3.429688 4.121093 5.789063 7.6875 5.792969h268.65625c3.570312-.003906 6.703124-2.363281 7.6875-5.792969 1.273437-4.175781 1.941406-8.507812 1.984374-12.871093 0-27.945313-24.800781-50.671875-55.304687-50.671875-3.414063.007812-6.824219.335937-10.183594.972656-13.710937-27.371094-41.992187-44.371094-72.597656-43.636719-7.480469.023438-14.929687 1.019531-22.152344 2.964844-11.753906-8.859375-26.082031-13.632813-40.800781-13.597656-4.421875.007812-8.832031.488281-13.152344 1.421875-15.359375-33.929688-49.433594-55.46875-86.671875-54.7890628-38.691406-.7617192-73.796875 22.5507808-88.113281 58.5039068-8.234375-3.414063-17.058594-5.171876-25.972656-5.167969-34.875-.960938-63.957032 26.457031-65.0507815 61.328125.0546875 5.238281.8320315 10.441406 2.3046875 15.46875.960938 3.46875 4.117188 5.867187 7.710938 5.867187zm392.121093-16.34375c1.394531 4.078125 5.773438 6.316407 9.894531 5.0625 4.097657-1.3125 8.367188-2.007812 12.664063-2.054687 20.394531-1.175782 37.925781 14.292968 39.304687 34.671875.003907.890625-.050781 1.777343-.160156 2.664062h-255.679687c-.105469-.886719-.160157-1.773437-.160157-2.664062 1.378907-20.378907 18.914063-35.847657 39.304688-34.671875 7.558594-.007813 14.984375 1.976562 21.527344 5.757812 2.167968 1.257813 4.796875 1.429688 7.109375.464844 2.308593-.964844 4.035156-2.957031 4.660156-5.382812 8.160156-26.761719 33.355469-44.640626 61.3125-43.503907 26.46875-.957031 50.640625 14.960938 60.222656 39.65625zm-337.085937-50.320312c9.398437-.003907 18.621094 2.554687 26.671875 7.40625 2.175781 1.3125 4.84375 1.511719 7.191406.539062 2.347656-.972656 4.09375-3 4.703125-5.46875 9.34375-33.757812 40.507812-56.789062 75.519531-55.8125 33.097657-.828125 62.992188 19.667969 74.152344 50.839844 1.355469 4.164063 5.808594 6.464844 9.992187 5.160156 12.472657-4.222656 26.113282-3.324219 37.929688 2.496094-14.8125 7.871094-26.488281 20.574219-33.082031 36-6.648438-2.503906-13.695313-3.785156-20.800781-3.785156-13.601563-.089844-26.800782 4.617187-37.277344 13.289062h-193.617188c-.28125-1.765625-.425781-3.550781-.433594-5.335937 1.09375-26.03125 23.011719-46.289063 49.050782-45.328125zm0 0"/></svg>