<?xml version="1.0" encoding="iso-8859-1"?>
<!-- Generator: Adobe Illustrator 16.0.0, SVG Export Plug-In . SVG Version: 6.00 Build 0)  -->
<!DOCTYPE svg PUBLIC "-//W3C//DTD SVG 1.1//EN" "http://www.w3.org/Graphics/SVG/1.1/DTD/svg11.dtd">
<svg version="1.1" id="Capa_1" xmlns="http://www.w3.org/2000/svg" xmlns:xlink="http://www.w3.org/1999/xlink" x="0px" y="0px"
	 width="612px" height="612px" viewBox="0 0 612 612" style="enable-background:new 0 0 612 612;" xml:space="preserve">
<g>
	<g>
		<g>
			<path d="M338.273,55.51c0.828,0,1.502,0.077,1.887,0.096c81.181,0.924,147.961,61.352,158.857,139.722
				C562.448,201.796,612,255.217,612,320.322c0,54.152-34.285,99.97-82.259,117.604l10.819-40.196
				c0.597-2.271,0.943-4.543,0.943-6.737c0-5.987-2.214-11.57-6.353-15.747c-3.946-4.004-9.664-6.314-15.689-6.314
				c-2.445,0-4.812,0.366-6.873,0.943l-96.657,25.988l-8.239,2.176l-0.347,0.115l-0.347,0.115
				c-12.667,4.158-23.756,10.935-33.092,20.214c-7.97,8.047-14.169,17.402-18.27,27.624H238.901l3.08-11.242
				c0.328-1.501,0.52-3.061,0.52-4.755c-0.039-3.465-0.982-6.737-2.676-9.548c3.272-3.446,5.198-8.104,5.198-12.956
				c0-3.215-0.828-6.43-2.483-9.298l-6.276-10.954c-3.35-5.794-9.51-9.375-16.286-9.375c-1.54,0-3.042,0.192-4.466,0.539
				c-2.406-4.312-6.468-7.623-11.512-9.028l-11.993-3.196c-1.579-0.462-3.35-0.712-5.082-0.712c-0.347,0-0.635,0-0.982,0
				c-0.597-0.809-1.271-1.598-2.002-2.329l-8.913-8.895c-3.465-3.503-8.316-5.486-13.245-5.505
				c-1.656-8.567-9.279-15.073-18.346-15.073h-12.59c-9.028,0-16.613,6.487-18.346,15.073c-5.121,0-9.934,2.04-13.283,5.563
				l-8.797,8.778c-0.982,0.981-1.848,2.04-2.599,3.176c-1.54,0.097-3.08,0.347-4.582,0.828l-11.55,3.08
				c-4.928,1.271-8.952,4.485-11.396,8.663c-1.925-0.636-3.985-0.982-6.045-0.982c-6.815,0-13.09,3.716-16.209,9.434l-6.391,11.068
				c-1.541,2.811-2.407,5.987-2.407,8.933c-0.077,3.6,1.021,6.969,2.811,9.914C12.359,398.48,0,372.011,0,342.558
				c0-55.231,43.276-100.201,97.794-103.185c15.381-36.519,47.376-64.182,86.667-73.519
				C206.194,101.692,266.757,55.51,338.273,55.51L338.273,55.51z M338.273,62.189c-66.819,0-126.073,42.506-147.46,105.783
				l-1.194,3.465l-3.581,0.866c-36.73,8.74-67.416,34.805-82.124,69.668l-1.656,3.831l-4.12,0.231
				c-51.284,2.811-91.441,45.201-91.441,96.523c0,20.29,6.16,39.56,17.711,55.711c0.385-1.021,0.828-2.06,1.424-3.022l6.468-11.185
				c4.273-7.835,12.744-12.802,21.946-12.802c1.136,0,2.175,0.077,3.234,0.192c3.311-3.677,7.604-6.372,12.474-7.643l11.589-3.099
				c0.828-0.27,1.694-0.481,2.676-0.655c0.481-0.577,1.02-1.136,1.54-1.655l8.759-8.739c3.388-3.543,7.97-5.987,12.937-6.988
				c3.908-9.26,13.09-15.593,23.39-15.593h12.628c10.376,0,19.559,6.313,23.467,15.631c4.812,0.982,9.317,3.389,12.821,6.892
				l8.913,8.933c0.154,0.154,0.308,0.289,0.443,0.443c1.617,0.135,3.196,0.423,4.736,0.866l11.877,3.176
				c5.083,1.386,9.587,4.332,12.898,8.278c0.443,0,0.905-0.02,1.348-0.02c9.105,0,17.557,4.89,22.062,12.744l6.275,10.915
				c2.214,3.869,3.388,8.259,3.388,12.647c0,4.967-1.424,9.741-4.1,13.842c0.981,2.733,1.579,5.602,1.579,8.566
				c0,2.252-0.231,4.351-0.751,6.43l-0.828,2.983h103.626c4.428-9.567,10.492-18.134,17.98-25.642
				c10.029-10.029,22.042-17.364,35.71-21.83l0.385-0.154l0.636-0.173l8.239-2.214l96.657-25.97
				c2.522-0.751,5.563-1.174,8.605-1.174c7.739,0,15.15,3.022,20.444,8.297c5.294,5.448,8.239,12.725,8.201,20.482
				c0,2.753-0.366,5.583-1.098,8.413l-7.258,26.874c39.695-19.982,65.529-61.044,65.529-106.014
				c0-61.295-45.989-112.155-106.976-118.315l-5.236-0.52l-0.712-5.179C481.846,120.77,416.354,63.152,340.025,62.267l-0.866-0.039
				C338.947,62.228,338.659,62.189,338.273,62.189L338.273,62.189z"/>
			<path d="M519.577,382.31c2.291,0,4.543,0.809,6.122,2.388v0.038c1.655,1.617,2.367,3.869,2.367,6.18
				c0,1.098-0.115,2.214-0.442,3.388L501.674,491l-2.291,8.489c-3.311,10.049-8.913,19.539-16.883,27.548
				c-13.687,13.629-31.59,20.502-49.474,20.502h-0.077h-0.039c-17.903,0-35.864-6.854-49.513-20.502
				c-13.688-13.707-20.502-31.648-20.502-49.532c0-17.961,6.814-35.902,20.502-49.552c7.97-8.008,17.519-13.61,27.779-16.979
				l8.2-2.195l96.696-25.969c1.136-0.347,2.291-0.481,3.389-0.481C519.5,382.31,519.539,382.31,519.577,382.31L519.577,382.31z
				 M519.577,388.971h-0.115c-0.521,0-1.059,0.077-1.579,0.231l-96.773,25.988l-7.97,2.137c-9.664,3.215-18.057,8.354-25.007,15.323
				c-11.993,11.955-18.538,27.875-18.538,44.835c0,16.922,6.545,32.842,18.538,44.815c11.993,11.955,27.856,18.559,44.777,18.559
				c16.999,0,32.899-6.604,44.854-18.559c6.949-6.969,12.07-15.284,15.228-24.756l2.214-8.278l25.988-96.715
				c0.154-0.521,0.23-1.136,0.23-1.656c0-0.654-0.153-1.231-0.442-1.54C520.752,389.144,520.136,388.971,519.577,388.971
				L519.577,388.971z"/>
			<path d="M143.476,347.101c2.965,0,5.371,2.406,5.371,5.39v20.387l9.067-9.067c1.098-1.136,2.522-1.636,3.908-1.636
				c1.309,0,2.714,0.5,3.792,1.56l8.913,8.913c1.059,1.077,1.578,2.444,1.578,3.83c0,1.31-0.52,2.753-1.578,3.773l-25.681,25.7
				v25.545l23.505-13.571l9.356-34.959c0.616-2.465,2.869-4.043,5.198-4.043h0.039c0.077,0,0.116,0,0.116,0
				c0.442,0,0.943,0.058,1.271,0.173l12.224,3.272c2.406,0.636,3.985,2.792,3.985,5.198c0,0.327-0.039,0.809-0.154,1.367
				l-3.35,12.474l16.132-9.317c0.982-0.615,1.963-0.789,2.83-0.789c0,0,0,0,0.038,0c1.848,0,3.639,0.924,4.621,2.676l6.314,10.954
				c0.481,0.828,0.712,1.752,0.712,2.656c0.039,1.867-0.905,3.658-2.676,4.697l-16.325,9.375l12.551,3.369
				c2.33,0.674,3.87,2.772,3.908,5.197c0,0.347-0.039,0.809-0.154,1.387l-3.311,12.224c-0.635,2.368-2.753,3.928-5.159,3.946
				c-0.462,0-0.943-0.019-1.386-0.153l-35.055-9.414l-23.524,13.572l23.543,13.571l34.805-9.298c0.712-0.27,1.251-0.27,1.656-0.289
				c2.368,0,4.543,1.579,5.159,4.004l3.35,12.302c0.077,0.347,0.115,0.789,0.115,1.29c0,2.387-1.578,4.543-3.985,5.217l-12.474,3.33
				l16.324,9.414c1.733,1.02,2.676,2.771,2.676,4.639c0,0.848-0.193,1.791-0.712,2.695l-6.314,10.992
				c-1.02,1.675-2.791,2.638-4.659,2.638c-0.038,0-0.077,0-0.115,0c-0.866,0-1.732-0.231-2.561-0.693l-16.286-9.433l3.388,12.687
				c0.039,0.327,0.116,0.692,0.116,1.174c0,2.349-1.54,4.562-3.985,5.217l-12.263,3.272c-0.404,0.135-0.905,0.212-1.309,0.212
				c-2.445,0-4.582-1.598-5.217-4.023l-9.394-35.056l-23.505-13.571v27.144l25.681,25.681c1.059,1.059,1.579,2.406,1.579,3.812
				c0,1.309-0.52,2.733-1.579,3.772l-8.952,8.972c-1.059,1.02-2.406,1.559-3.754,1.559c-1.386,0-2.811-0.539-3.831-1.578
				l-9.144-9.145v18.809c0,3.003-2.368,5.37-5.371,5.39h-12.686c-2.964-0.019-5.371-2.406-5.409-5.39v-18.827l-9.106,9.163
				c-1.059,1.021-2.406,1.578-3.792,1.578c-1.386,0-2.791-0.52-3.792-1.578l-8.952-8.933c-1.059-1.039-1.579-2.483-1.579-3.792
				c0-1.405,0.52-2.811,1.579-3.812l25.642-25.681v-27.144l-22.139,12.763l-9.356,35.152c-0.712,2.387-2.83,3.907-5.236,3.927
				c-0.424,0-0.905-0.019-1.348-0.173l-12.224-3.292c-2.445-0.616-3.985-2.868-3.985-5.197c0-0.598,0.115-1.06,0.154-1.406
				l3.388-12.474l-17.749,10.26c-0.751,0.404-1.694,0.693-2.638,0.693c-1.81,0-3.638-1.001-4.62-2.714l-6.276-10.877
				c-0.558-0.886-0.789-1.925-0.789-2.772c0-1.867,0.982-3.677,2.714-4.64l17.634-10.222l-12.456-3.312
				c-2.406-0.654-3.985-2.811-3.985-5.217c0-0.5,0.077-1.02,0.193-1.366l3.272-12.147c0.597-2.464,2.772-4.062,5.178-4.062
				c0.481,0,0.982,0.076,1.386,0.192l35.075,9.395l22.139-12.802l-22.177-12.764l-35.19,9.433c-0.308,0.058-0.712,0.116-1.174,0.116
				c0,0,0,0-0.077,0c-2.406,0-4.505-1.579-5.178-3.985l-3.196-11.936c-0.27-0.674-0.27-1.271-0.27-1.636
				c0-2.388,1.579-4.544,3.985-5.218l12.455-3.33l-17.633-10.184c-1.733-1.021-2.714-2.868-2.714-4.697
				c0-0.981,0.27-1.867,0.75-2.676l6.276-10.838c0.982-1.849,2.849-2.772,4.62-2.772c0.039,0,0.039,0,0.039,0
				c0.943,0,1.887,0.231,2.714,0.731l17.672,10.165l-3.312-12.302c-0.231-0.654-0.231-1.213-0.231-1.578
				c0-2.388,1.579-4.562,3.985-5.198l11.955-3.195c0.673-0.25,1.232-0.27,1.655-0.27c2.406,0.02,4.543,1.56,5.198,4.004
				l9.356,35.036l22.138,12.802v-25.564L99.815,380.25c-1.097-1.039-1.617-2.483-1.617-3.792c0-1.387,0.52-2.811,1.579-3.812
				l8.875-8.855c1.097-1.136,2.483-1.637,3.869-1.637c1.348,0,2.714,0.501,3.792,1.56l9.105,9.163v-20.405
				c0.039-2.984,2.445-5.391,5.41-5.391h12.647V347.101z M142.167,353.761h-10.049v19.136v16.094l-11.396-11.378l-8.201-8.22
				l-7.104,7.084l24.699,24.737l1.983,1.964v2.791v25.565v11.569l-9.991-5.794l-22.138-12.821l-2.407-1.367l-0.712-2.676
				l-9.067-33.785l-9.702,2.6l3.003,11.242l4.178,15.555l-13.976-8.066l-16.498-9.567l-5.044,8.701l16.537,9.549l13.995,8.065
				l-15.612,4.178l-11.204,2.983l2.599,9.722l33.804-9.048l2.676-0.75l2.445,1.386l22.139,12.802l10.01,5.756l-10.01,5.833
				l-22.139,12.744l-2.406,1.386l-2.676-0.693l-33.804-9.086l-2.637,9.702l11.204,3.003l15.574,4.178l-13.918,8.066l-16.575,9.548
				l5.044,8.683l16.498-9.529l13.976-8.066l-4.178,15.574l-3.003,11.242l9.702,2.599l9.067-33.843l0.712-2.676l2.407-1.366
				l22.138-12.783l9.991-5.794v11.569V499.2v2.772l-1.944,1.944l-24.718,24.775l7.104,7.084l8.201-8.258l11.396-11.396v16.132
				v17.537h10.049v-17.518v-16.151l11.435,11.415l8.24,8.239l7.065-7.084l-24.737-24.775l-1.944-1.944V499.2v-27.144v-11.589
				l10.03,5.813l23.466,13.572l2.407,1.366l0.712,2.695l9.067,33.823l9.702-2.617l-3.003-11.224l-4.139-15.574l13.918,8.086
				l15.189,8.739l5.043-8.701l-15.189-8.739l-13.995-8.066l15.612-4.139l11.204-3.042l-2.599-9.683l-33.843,9.048l-2.676,0.712
				l-2.406-1.405l-23.543-13.514l-10.011-5.833l10.011-5.756l23.543-13.592l2.368-1.405l2.676,0.751l33.843,9.067l2.599-9.741
				l-11.204-2.965l-15.612-4.196l13.996-8.027l15.188-8.778l-5.043-8.701l-15.189,8.778l-13.918,8.027l4.139-15.574l3.003-11.204
				l-9.702-2.618l-9.067,33.844l-0.712,2.656l-2.406,1.405l-23.467,13.553l-10.03,5.774v-11.569v-25.546v-2.791l1.944-1.964
				l24.737-24.737l-7.065-7.104l-8.239,8.221l-11.435,11.396v-16.113v-19.116H142.167z"/>
		</g>
	</g>
</g>
<g>
</g>
<g>
</g>
<g>
</g>
<g>
</g>
<g>
</g>
<g>
</g>
<g>
</g>
<g>
</g>
<g>
</g>
<g>
</g>
<g>
</g>
<g>
</g>
<g>
</g>
<g>
</g>
<g>
</g>
</svg>
