<?xml version="1.0" encoding="iso-8859-1"?>
<!-- Generator: Adobe Illustrator 19.0.0, SVG Export Plug-In . SVG Version: 6.00 Build 0)  -->
<svg xmlns="http://www.w3.org/2000/svg" xmlns:xlink="http://www.w3.org/1999/xlink" version="1.1" id="Layer_1" x="0px" y="0px" viewBox="0 0 512.067 512.067" style="enable-background:new 0 0 512.067 512.067;" xml:space="preserve" width="512" height="512">
<g>
	<path style="fill:#97E4FD;" d="M490.901,144.825c-10.403-10.72-23.512-17.963-37.824-21.064   c-5.884-36.093-37.28-63.727-75.01-63.727c-2.654,0-5.303,0.138-7.935,0.413c-25.12-37.514-67.515-60.413-113.065-60.413   c-0.334,0-0.666,0.013-1,0.016l-60,135.992l60,135.992h181c41.355,0,75-33.645,75-75   C512.067,177.431,504.551,158.89,490.901,144.825z"/>
	<path style="fill:#BCF7FC;" d="M144.002,60.446c-2.632-0.274-5.28-0.413-7.935-0.413c-37.581,0-68.879,27.418-74.939,63.303   c-34.721,6.559-61.061,37.11-61.061,73.697c0,41.355,33.645,75,75,75h181V0.049C210.897,0.382,168.938,23.207,144.002,60.446z"/>
	<path style="fill:#26ABFF;" d="M324.067,362.034h-128v-30h128c16.542,0,30-13.458,30-30h30   C384.067,335.118,357.151,362.034,324.067,362.034z"/>
	<path style="fill:#4CBEFE;" d="M512.067,512.034h-30c0-16.542-13.458-30-30-30h-128v-30h128   C485.151,452.034,512.067,478.95,512.067,512.034z"/>
	<path style="fill:#26ABFF;" d="M384.067,512.034h-30c0-16.542-13.458-30-30-30h-128v-30h128   C357.151,452.034,384.067,478.95,384.067,512.034z"/>
	<path style="fill:#4CBEFE;" d="M256.067,512.034h-30c0-16.542-13.458-30-30-30h-106v-30h106   C229.151,452.034,256.067,478.95,256.067,512.034z"/>
	<path style="fill:#4CBEFE;" d="M196.067,362.034h-196v-30h196c16.542,0,30-13.458,30-30h30   C256.067,335.118,229.151,362.034,196.067,362.034z"/>
	<rect x="0.067" y="452.034" style="fill:#4CBEFE;" width="60" height="30"/>
	<rect x="60.067" y="392.034" style="fill:#71D1FE;" width="196" height="30"/>
	
		<rect x="301.067" y="377.101" transform="matrix(0.0022 1 -1 0.0022 722.4676 90.1331)" style="fill:#4CBEFE;" width="30" height="60"/>
	
		<rect x="0.067" y="392.101" transform="matrix(0.0045 1 -1 0.0045 422.0964 390.2048)" style="fill:#4CBEFE;" width="30" height="30"/>
</g>















</svg>
