<svg height="512pt" viewBox="-12 0 512 512" width="512pt" xmlns="http://www.w3.org/2000/svg"><path d="m286.003906 84.078125c-.652344 0-1.3125-.058594-1.953125-.1875s-1.269531-.320313-1.867187-.570313c-.613282-.25-1.191406-.558593-1.730469-.921874-.550781-.367188-1.0625-.789063-1.519531-1.25-.460938-.457032-.882813-.96875-1.242188-1.519532-.359375-.539062-.667968-1.117187-.917968-1.71875-.25-.609375-.441407-1.238281-.570313-1.878906-.132813-.640625-.199219-1.300781-.199219-1.953125 0-.648437.066406-1.308594.199219-1.949219.117187-.640625.320313-1.269531.570313-1.867187.25-.613281.558593-1.191407.917968-1.730469.359375-.550781.78125-1.0625 1.242188-1.519531.457031-.460938.96875-.882813 1.519531-1.242188.539063-.359375 1.117187-.667969 1.730469-.917969.597656-.25 1.226562-.441406 1.867187-.570312 1.292969-.261719 2.609375-.261719 3.902344 0 .640625.128906 1.269531.320312 1.878906.570312.601563.25 1.179688.558594 1.71875.917969.550781.359375 1.0625.78125 1.519531 1.242188.460938.457031.882813.96875 1.25 1.519531.363282.539062.660157 1.117188.910157 1.730469.25.597656.453125 1.226562.570312 1.867187.132813.640625.203125 1.300782.203125 1.949219 0 .652344-.070312 1.3125-.203125 1.953125-.117187.640625-.320312 1.269531-.570312 1.878906-.25.601563-.546875 1.179688-.910157 1.71875-.367187.550782-.789062 1.0625-1.25 1.519532-.457031.460937-.96875.882812-1.519531 1.25-.539062.363281-1.117187.671874-1.71875.921874-.609375.25-1.238281.441407-1.878906.570313s-1.300781.1875-1.949219.1875zm0 0"/><path d="m425.402344 68.789062c-37.503906-43.449218-86.210938-67.699218-137.148438-68.273437-.765625-.019531-1.527344.058594-2.265625.222656-.730469-.160156-1.480469-.234375-2.234375-.222656-50.9375.574219-99.644531 24.824219-137.152344 68.273437-35.617187 41.269532-56.046874 94.761719-56.046874 146.765626v37.859374c0 5.519532 4.476562 10 10 10 5.523437 0 10-4.480468 10-10 0-19.046874 15.496093-34.542968 34.539062-34.542968 19.046875 0 34.542969 15.496094 34.542969 34.542968 0 5.519532 4.476562 10 10 10 5.519531 0 10-4.480468 10-10 0-19.046874 15.492187-34.542968 34.539062-34.542968h7.289063c19.042968 0 34.539062 15.496094 34.539062 34.542968v96.28125h-21.144531c-5.523437 0-10 4.476563-10 10 0 5.523438 4.476563 10 10 10h4.375v81.167969c0 4.191407-3.410156 7.597657-7.59375 7.597657-4.1875 0-7.59375-3.40625-7.59375-7.597657v-17.636719c0-14.761718-12.011719-26.773437-26.773437-26.773437-14.757813 0-26.769532 12.011719-26.769532 26.773437v17.636719c0 33.710938 27.425782 61.136719 61.136719 61.136719 33.707031 0 61.132813-27.425781 61.132813-61.136719v-81.167969h4.375c5.523437 0 10-4.476562 10-10 0-5.523437-4.476563-10-10-10h-21.144532v-96.28125c0-19.046874 15.492188-34.542968 34.539063-34.542968h7.289062c19.046875 0 34.539063 15.496094 34.539063 34.542968 0 5.519532 4.476562 10 10 10 5.523437 0 10-4.480468 10-10 0-19.046874 15.496094-34.542968 34.539062-34.542968 19.046875 0 34.542969 15.496094 34.542969 34.542968 0 5.519532 4.476563 10 10 10s10-4.480468 10-10v-37.859374c0-52.003907-20.429687-105.496094-56.050781-146.765626zm-132.628906 382.074219c0 22.683594-18.453126 41.136719-41.132813 41.136719-22.683594 0-41.136719-18.453125-41.136719-41.136719v-17.636719c0-3.734374 3.039063-6.773437 6.769532-6.773437 3.734374 0 6.773437 3.039063 6.773437 6.773437v17.636719c0 15.21875 12.375 27.597657 27.59375 27.597657 15.214844 0 27.59375-12.378907 27.59375-27.597657v-81.167969h13.539063zm-113.140626-285.648437v46.019531c-9.410156-7.722656-21.441406-12.363281-34.539062-12.363281-13.070312 0-25.078125 4.621094-34.484375 12.316406 2.011719-78.238281 57.691406-163.65625 136.347656-185.417969-43.710937 35.472657-67.324219 83.828125-67.324219 139.445313zm158.199219 33.65625h-7.289062c-13.09375 0-25.128907 4.644531-34.539063 12.363281v-98.820313c0-5.523437-4.476562-10-10-10-5.523437 0-10 4.476563-10 10v98.820313c-9.414062-7.722656-21.445312-12.363281-34.539062-12.363281h-7.289063c-13.097656 0-25.128906 4.644531-34.542969 12.363281v-46.019531c0-59.414063 30.621094-109.671875 86.371094-142.070313 55.75 32.394531 86.367188 82.65625 86.367188 142.070313v46.019531c-9.410156-7.71875-21.445313-12.363281-34.539063-12.363281zm89.078125 0c-13.09375 0-25.125 4.640625-34.539062 12.363281v-46.019531c0-55.617188-23.613282-103.976563-67.324219-139.445313 78.65625 21.757813 134.339844 107.179688 136.347656 185.417969-9.402343-7.695312-21.414062-12.316406-34.484375-12.316406zm0 0"/><path d="m478.285156 327.957031h-9.199218l2.445312-2.449219c3.90625-3.90625 3.90625-10.238281 0-14.144531-3.902344-3.902343-10.234375-3.902343-14.140625 0l-16.589844 16.59375h-3.152343v-3.152343l16.589843-16.59375c3.90625-3.90625 3.90625-10.234376 0-14.140626-3.902343-3.90625-10.234375-3.90625-14.140625 0l-2.449218 2.449219v-9.203125c0-5.523437-4.476563-10-10-10-5.523438 0-10 4.476563-10 10v9.203125l-2.449219-2.449219c-3.90625-3.90625-10.234375-3.90625-14.140625 0-3.90625 3.902344-3.90625 10.234376 0 14.140626l16.589844 16.59375v3.152343h-3.152344l-16.589844-16.59375c-3.902344-3.902343-10.234375-3.902343-14.140625 0-3.90625 3.90625-3.90625 10.238281 0 14.144531l2.449219 2.449219h-9.199219c-5.523437 0-10 4.476563-10 10 0 5.519531 4.476563 10 10 10h9.199219l-2.449219 2.449219c-3.90625 3.902344-3.90625 10.234375 0 14.140625 1.953125 1.953125 4.511719 2.929687 7.070313 2.929687 2.558593 0 5.117187-.976562 7.070312-2.929687l16.589844-16.589844h3.152344v3.152344l-16.589844 16.589844c-3.90625 3.90625-3.90625 10.238281 0 14.144531 3.90625 3.902344 10.238281 3.902344 14.140625 0l2.449219-2.449219v9.199219c0 5.523438 4.476562 10 10 10 5.523437 0 10-4.476562 10-10v-9.199219l2.449218 2.449219c1.953125 1.953125 4.511719 2.929688 7.070313 2.929688 2.558593 0 5.117187-.976563 7.070312-2.929688 3.90625-3.90625 3.90625-10.238281 0-14.144531l-16.589843-16.589844v-3.152344h3.152343l16.589844 16.589844c1.953125 1.953125 4.511719 2.929687 7.070313 2.929687 2.558593 0 5.121093-.976562 7.070312-2.929687 3.90625-3.902344 3.90625-10.234375 0-14.140625l-2.445312-2.449219h9.199218c5.523438 0 10-4.480469 10-10 0-5.523437-4.476562-10-10-10zm0 0"/><path d="m111.269531 50.636719h-9.199219l2.449219-2.449219c3.90625-3.902344 3.90625-10.234375 0-14.140625s-10.238281-3.90625-14.140625 0l-16.59375 16.589844h-3.148437v-3.152344l16.589843-16.589844c3.90625-3.90625 3.90625-10.238281 0-14.144531-3.90625-3.902344-10.238281-3.902344-14.140624 0l-2.449219 2.449219v-9.199219c0-5.523438-4.480469-10-10-10-5.523438 0-10 4.476562-10 10v9.199219l-2.449219-2.445313c-3.90625-3.90625-10.238281-3.90625-14.140625-.003906-3.90625 3.90625-3.90625 10.238281 0 14.144531l16.589844 16.589844v3.15625h-3.152344l-16.589844-16.59375c-3.90625-3.902344-10.238281-3.90625-14.144531 0-3.902344 3.902344-3.90625 10.234375 0 14.140625l2.449219 2.449219h-9.199219c-5.523438 0-10 4.480469-10 10 0 5.523437 4.476562 10 10 10h9.199219l-2.449219 2.453125c-3.90625 3.902344-3.90625 10.234375 0 14.140625 1.953125 1.953125 4.511719 2.929687 7.070312 2.929687 2.558594 0 5.121094-.976562 7.070313-2.929687l16.589844-16.59375h3.152343v3.15625l-16.589843 16.589843c-3.902344 3.90625-3.902344 10.238282 0 14.144532 3.90625 3.90625 10.238281 3.902344 14.144531-.003906l2.445312-2.449219v9.203125c0 5.523437 4.476563 10 10 10 5.523438 0 10-4.476563 10-10v-9.199219l2.449219 2.449219c1.953125 1.949218 4.511719 2.925781 7.070313 2.925781 2.5625 0 5.121094-.976563 7.074218-2.925781 3.902344-3.90625 3.90625-10.238282 0-14.144532l-16.589843-16.59375v-3.152343h3.148437l16.59375 16.59375c1.949219 1.953125 4.511719 2.929687 7.070313 2.929687 2.558593 0 5.117187-.976562 7.070312-2.929687 3.90625-3.90625 3.90625-10.238281 0-14.140625l-2.453125-2.453125h9.203125c5.523438 0 10-4.476563 10-10 0-5.523438-4.476562-10-10-10zm0 0"/><path d="m146.90625 347.621094c-17.910156 0-32.480469-14.570313-32.480469-32.484375 0-17.910157 14.570313-32.484375 32.480469-32.484375 17.914062 0 32.484375 14.574218 32.484375 32.484375 0 17.914062-14.570313 32.484375-32.484375 32.484375zm0-44.96875c-6.882812 0-12.480469 5.601562-12.480469 12.484375 0 6.882812 5.597657 12.484375 12.480469 12.484375 6.886719 0 12.484375-5.601563 12.484375-12.484375 0-6.882813-5.597656-12.484375-12.484375-12.484375zm0 0"/><path d="m378.726562 492.648438c-17.910156 0-32.484374-14.570313-32.484374-32.484376 0-17.910156 14.574218-32.480468 32.484374-32.480468 17.914063 0 32.484376 14.570312 32.484376 32.480468 0 17.914063-14.570313 32.484376-32.484376 32.484376zm0-44.964844c-6.882812 0-12.484374 5.597656-12.484374 12.480468 0 6.886719 5.601562 12.484376 12.484374 12.484376 6.882813 0 12.484376-5.597657 12.484376-12.484376 0-6.882812-5.601563-12.480468-12.484376-12.480468zm0 0"/></svg>