<svg height="464pt" viewBox="0 0 464 464" width="464pt" xmlns="http://www.w3.org/2000/svg"><path d="m0 0h464v464h-464z" fill="#f4f4e6"/><path d="m318.398438 128c1.007812-3.46875 1.542968-7.054688 1.601562-10.664062-.519531-24.074219-20.445312-43.171876-44.519531-42.671876-4.800781.050782-9.5625.863282-14.113281 2.398438-9.816407-27.816406-36.550782-46.042969-66.03125-45.027344-29.480469 1.019532-54.890626 21.050782-62.769532 49.476563-7.21875-4.476563-15.550781-6.851563-24.046875-6.847657-24.074219-.5-44 18.597657-44.519531 42.671876.058594 3.609374.59375 7.195312 1.601562 10.664062zm0 0" fill="#32b1cc"/><path d="m206.953125 240c.660156-2.3125 1.015625-4.707031 1.046875-7.113281-.351562-16.042969-13.632812-28.773438-29.679688-28.4375-3.199218.035156-6.375.574219-9.410156 1.597656-6.542968-18.542969-24.363281-30.699219-44.019531-30.019531-19.652344.679687-36.59375 14.035156-41.84375 32.988281-4.804687-2.976563-10.34375-4.554687-16-4.558594-16.046875-.335937-29.328125 12.394531-29.679687 28.4375.03125 2.40625.375 4.792969 1.03125 7.105469zm0 0" fill="#7fcac9"/><path d="m430.398438 152c1.007812-3.46875 1.542968-7.054688 1.601562-10.664062-.519531-24.074219-20.445312-43.171876-44.519531-42.671876-4.800781.050782-9.5625.863282-14.113281 2.398438-9.816407-27.816406-36.550782-46.042969-66.03125-45.027344-29.480469 1.019532-54.890626 21.050782-62.769532 49.476563-7.21875-4.476563-15.550781-6.851563-24.046875-6.847657-24.074219-.5-44 18.597657-44.519531 42.671876.058594 3.609374.59375 7.195312 1.601562 10.664062zm0 0" fill="#7fcac9"/><path d="m391.761719 344c-12.878907 0-24.953125-6.238281-32.402344-16.742188-7.453125-10.5-9.351563-23.960937-5.09375-36.113281l37.496094-107.144531 37.503906 107.144531c4.253906 12.152344 2.355469 25.617188-5.097656 36.117188s-19.53125 16.742187-32.40625 16.738281zm0 0" fill="#32b1cc"/><path d="m71.761719 432c-12.878907 0-24.953125-6.238281-32.402344-16.742188-7.453125-10.5-9.351563-23.960937-5.09375-36.113281l37.496094-107.144531 37.503906 107.144531c4.253906 12.152344 2.355469 25.617188-5.097656 36.117188s-19.53125 16.742187-32.40625 16.738281zm0 0" fill="#32b1cc"/><path d="m272 280.289062c-7.769531-.011718-15.050781-3.777343-19.546875-10.113281-4.492187-6.335937-5.644531-14.457031-3.085937-21.792969l22.632812-64.671874 22.632812 64.671874c2.558594 7.335938 1.40625 15.457032-3.085937 21.792969-4.496094 6.335938-11.777344 10.101563-19.546875 10.113281zm0 0" fill="#32b1cc"/><path d="m320 424.566406c-7.765625-.007812-15.046875-3.777344-19.542969-10.109375-4.492187-6.335937-5.644531-14.453125-3.089843-21.785156l22.632812-64.671875 22.632812 64.671875c2.554688 7.332031 1.402344 15.449219-3.089843 21.785156-4.496094 6.332031-11.777344 10.101563-19.542969 10.109375zm0 0" fill="#32b1cc"/><path d="m184 368.289062c-7.769531-.011718-15.050781-3.777343-19.546875-10.113281-4.492187-6.335937-5.644531-14.457031-3.085937-21.792969l22.632812-64.671874 22.632812 64.671874c2.558594 7.335938 1.40625 15.457032-3.085937 21.792969-4.496094 6.335938-11.777344 10.101563-19.546875 10.113281zm0 0" fill="#32b1cc"/><g fill="#195c85"><path d="m256 320h16v16h-16zm0 0"/><path d="m256 352h16v16h-16zm0 0"/><path d="m240 336h16v16h-16zm0 0"/><path d="m272 336h16v16h-16zm0 0"/><path d="m40 24h16v16h-16zm0 0"/><path d="m40 56h16v16h-16zm0 0"/><path d="m24 40h16v16h-16zm0 0"/><path d="m56 40h16v16h-16zm0 0"/><path d="m40 144h16v16h-16zm0 0"/><path d="m40 176h16v16h-16zm0 0"/><path d="m24 160h16v16h-16zm0 0"/><path d="m56 160h16v16h-16zm0 0"/><path d="m400 24h16v16h-16zm0 0"/><path d="m400 56h16v16h-16zm0 0"/><path d="m384 40h16v16h-16zm0 0"/><path d="m416 40h16v16h-16zm0 0"/><path d="m200 392h16v16h-16zm0 0"/><path d="m200 424h16v16h-16zm0 0"/><path d="m184 408h16v16h-16zm0 0"/><path d="m216 408h16v16h-16zm0 0"/><path d="m408 392h16v16h-16zm0 0"/><path d="m408 424h16v16h-16zm0 0"/><path d="m392 408h16v16h-16zm0 0"/><path d="m424 408h16v16h-16zm0 0"/></g></svg>