<svg height="560pt" viewBox="0 0 560.38853 560" width="560pt" xmlns="http://www.w3.org/2000/svg"><path d="m299.996094 350.15625c0 11.046875-8.953125 20-20 20-11.042969 0-20-8.953125-20-20s8.957031-20 20-20c11.046875 0 20 8.953125 20 20zm0 0"/><path d="m329.996094 480.15625h20.003906c5.519531 0 10-4.476562 10-10v-130.320312l-80-66.679688-80 66.671875v130.328125c0 5.523438 4.476562 10 10 10h20c5.523438 0 10-4.476562 10-10v-30c0-16.570312 13.429688-30 30-30h20c16.566406 0 30 13.429688 30 30v30c-.003906 5.523438 4.476562 10 9.996094 10zm-50-90c-22.089844 0-39.996094-17.910156-39.996094-40s17.90625-40 39.996094-40c22.09375 0 40 17.910156 40 40s-17.90625 40-40 40zm0 0"/><path d="m137.089844 110.636719c-9.167969-3.132813-19.097656-3.269531-28.351563-.398438l-20.738281 7.621094c-29.039062 10.113281-53.007812 31.117187-66.839844 58.578125-19.984375 41.882812-12.527344 91.703125 18.839844 125.898438 7.414062-7.636719 15.667969-14.40625 24.609375-20.179688 4.652344-2.976562 10.839844-1.617188 13.816406 3.035156 2.976563 4.652344 1.617188 10.839844-3.035156 13.816406-34.429687 22.132813-55.285156 60.214844-55.390625 101.148438-.042969 27.960938 9.785156 55.039062 27.75 76.46875 1.933594 2.257812 4.757812 3.546875 7.730469 3.527344h114.519531c5.523438 0 10-4.476563 10-10v-113.644532l-13.589844 11.328126c-4.242187 3.542968-10.550781 2.972656-14.089844-1.269532-3.542968-4.242187-2.972656-10.550781 1.269532-14.089844l116.796875-97.320312c5.566406-4.636719 13.648437-4.636719 19.210937 0l116.808594 97.339844c4.242188 3.539062 4.8125 9.847656 1.269531 14.089844-3.539062 4.242187-9.847656 4.808593-14.089843 1.269531l-13.589844-11.347657v113.648438c0 5.523438 4.476562 10 10 10h128.191406c3.921875.03125 7.5-2.234375 9.148438-5.789062 15.660156-34.777344 16.835937-74.359376 3.261718-110-.089844-.179688-.230468-.328126-.3125-.519532-3.890625-9.871094-8.894531-19.265625-14.917968-28-3.003907-4.546875-1.816407-10.660156 2.671874-13.75 4.488282-3.089844 10.621094-2.019531 13.796876 2.410156 3.570312 5.195313 6.824218 10.597657 9.75 16.179688 12.195312-18.238281 18.609374-39.730469 18.410156-61.667969-1.28125-39.625-23.691406-75.523437-58.726563-94.070312l-16.632812-9.160157c-11.167969-3.71875-22.863281-5.621093-34.640625-5.628906-5.519532 0-10-4.476562-10-10 0-5.523437 4.480468-10 10-10 9.964844.023438 19.894531 1.191406 29.589844 3.476563.242187-2.789063.410156-5.589844.410156-8.476563-.058594-52.445312-42.554688-94.941406-95-95-14.203125-.015625-28.222656 3.203125-40.996094 9.410156-.171875.078126-.363281.066407-.542969.148438-9.21875 4.484375-17.660156 10.417969-25 17.578125-2.539062 2.5625-6.257812 3.558594-9.738281 2.609375-3.476562-.953125-6.175781-3.703125-7.058594-7.199219-.882812-3.5.1875-7.199219 2.800782-9.6875 6.195312-6.03125 13.046874-11.351562 20.429687-15.859375-27.890625-36.484375-74.207031-53.777344-119.183594-44.492187-44.972656 9.285156-80.65625 43.503906-91.816406 88.050781 9.105469-.78125 18.261719-.648438 27.339844.390625 3.71875.492187 6.851562 3.023437 8.109375 6.558594 1.257812 3.535156.433594 7.476562-2.136719 10.207031-2.574219 2.734375-6.457031 3.796875-10.0625 2.753906zm284.417968 157.160156c2.914063-4.6875 9.078126-6.125 13.769532-3.210937 44.507812 27.75 58.144531 86.292968 30.480468 130.851562-2.917968 4.695312-9.085937 6.132812-13.78125 3.21875-4.695312-2.914062-6.136718-9.085938-3.21875-13.78125 21.820313-35.179688 11.054688-81.382812-24.070312-103.296875-2.25-1.40625-3.847656-3.648437-4.445312-6.234375-.59375-2.582031-.140626-5.296875 1.265624-7.546875zm-151.210937-96.449219c22.234375-11.855468 48.269531-14.390625 72.371094-7.050781 24.105469 7.339844 44.304687 23.957031 56.160156 46.191406 2.59375 4.875.746094 10.933594-4.132813 13.53125-4.875 2.59375-10.933593.746094-13.527343-4.132812-19.484375-36.542969-64.902344-50.375-101.449219-30.898438-3.15625 1.75-7.011719 1.660157-10.085938-.230469-3.074218-1.890624-4.890624-5.292968-4.75-8.898437.136719-3.609375 2.207032-6.859375 5.414063-8.511719zm-70.296875-31.1875c5.523438 0 10 4.476563 10 10 0 5.523438-4.476562 10-10 10-41.402344.042969-74.957031 33.59375-75 75 0 5.519532-4.476562 10-10 10s-10-4.480468-10-10c.058594-52.445312 42.558594-94.941406 95-95zm0 0"/><path d="m389.996094 520.15625h160c5.523437 0 10-4.476562 10-10s-4.476563-10-10-10h-539.996094c-5.523438 0-10 4.476562-10 10s4.476562 10 10 10h200c5.523438 0 10 4.476562 10 10s-4.476562 10-10 10h-200c-5.523438 0-10 4.476562-10 10s4.476562 10 10 10h539.996094c5.523437 0 10-4.476562 10-10s-4.476563-10-10-10h-160c-5.523438 0-10-4.476562-10-10s4.476562-10 10-10zm-50 20h-80c-5.523438 0-10-4.476562-10-10s4.476562-10 10-10h80c5.523437 0 10 4.476562 10 10s-4.476563 10-10 10zm0 0"/><path d="m270 430.15625h20c5.523438 0 10 4.476562 10 10v30c0 5.523438-4.476562 10-10 10h-20c-5.523438 0-10-4.476562-10-10v-30c0-5.523438 4.476562-10 10-10zm0 0"/></svg>