<svg height="479pt" viewBox="0 -32 479.99058 479" width="479pt" xmlns="http://www.w3.org/2000/svg"><path d="m36.367188 148.894531 36.089843 102.238281c1.117188 3.171876 4.101563 5.304688 7.464844 5.335938h.078125c3.335938.003906 6.320312-2.0625 7.496094-5.183594l34.519531-92.070312c17.78125-3.796875 31.875-17.332032 36.382813-34.945313 17.066406-7.789062 27.269531-25.589843 25.367187-44.253906s-15.488281-34.039063-33.773437-38.226563c-5.351563-19.921874-21.265626-35.265624-41.375-39.878906-20.105469-4.617187-41.117188 2.246094-54.625 17.839844-4.347657-2.15625-9.136719-3.277344-13.992188-3.28125-17.671875 0-32 14.328125-32 32-.007812 4.980469 1.175781 9.890625 3.457031 14.320312-7.421875 9.660157-11.4492185 21.5-11.457031 33.679688.09375 23.320312 14.558594 44.171875 36.367188 52.425781zm-9.167969-79.90625c2.78125-2.902343 2.972656-7.421875.449219-10.550781-2.328126-2.804688-3.617188-6.324219-3.648438-9.96875 0-8.835938 7.164062-16 16-16 3.898438.011719 7.652344 1.46875 10.535156 4.089844 1.746094 1.535156 4.074219 2.238281 6.378906 1.917968 2.304688-.316406 4.355469-1.621093 5.621094-3.574218 8.882813-13.96875 25.484375-20.976563 41.6875-17.59375 16.203125 3.378906 28.621094 16.441406 31.175782 32.792968.585937 3.617188 3.550781 6.375 7.203124 6.695313 13.128907 1.160156 23.640626 11.382813 25.160157 24.480469 1.523437 13.09375-6.363281 25.453125-18.882813 29.59375-2.84375.957031-4.914062 3.429687-5.359375 6.398437-2.191406 14.324219-13.777343 25.359375-28.191406 26.847657-3.015625.3125-5.597656 2.304687-6.664063 5.144531l-28.441406 75.839843-30.0625-85.222656c-.859375-2.433594-2.839844-4.300781-5.320312-5.015625-17.046875-5.011719-28.777344-20.625-28.839844-38.394531.035156-10.261719 4.050781-20.113281 11.199219-27.480469zm0 0"/><path d="m57.425781 126.871094c3.53125 2.648437 8.546875 1.933594 11.199219-1.601563 2.648438-3.535156 1.933594-8.546875-1.601562-11.199219-5.976563-4.835937-9.898438-11.761718-10.96875-19.375.164062-9.523437 4.484374-18.5 11.824218-24.570312 3.03125-3.136719 2.988282-8.128906-.097656-11.214844-3.085938-3.085937-8.074219-3.128906-11.214844-.097656-10.738281 9.265625-16.78125 22.84375-16.46875 37.027344 1.425782 12.230468 7.660156 23.394531 17.328125 31.03125zm0 0"/><path d="m93.390625 127.164062c2.941406.894532 6 1.335938 9.074219 1.304688 5.175781.027344 10.273437-1.261719 14.816406-3.742188 9.726562-6.03125 16.421875-15.925781 18.398438-27.199218.984374-4.253906-1.617188-8.511719-5.851563-9.570313-4.234375-1.058593-8.535156 1.472657-9.667969 5.6875-1.023437 6.839844-4.773437 12.972657-10.398437 16.992188-3.5 1.828125-7.550781 2.304687-11.378907 1.335937-4.152343-1.230468-8.53125 1.066406-9.878906 5.183594-1.347656 4.113281.828125 8.554688 4.902344 10.019531zm0 0"/><path d="m135.921875 79.582031h.078125c4.433594-.023437 8.011719-3.628906 8-8.058593-.011719-4.433594-3.609375-8.019532-8.039062-8.019532-4.433594 0-8.03125 3.585938-8.039063 8.019532-.011719 4.429687 3.566406 8.035156 8 8.058593zm0 0"/><path d="m96 320.46875h16c4.417969 0 8-3.582031 8-8s-3.582031-8-8-8h-16c-4.417969 0-8 3.582031-8 8s3.582031 8 8 8zm0 0"/><path d="m395.574219 329.308594c-3.953125-1.976563-8.761719-.371094-10.734375 3.585937l-13.785156 27.574219h-83.054688c-4.417969 0-8 3.582031-8 8s3.582031 8 8 8h88c3.046875.019531 5.839844-1.699219 7.199219-4.421875l16-32c.949219-1.90625 1.097656-4.105469.417969-6.121094-.679688-2.015625-2.132813-3.675781-4.042969-4.617187zm0 0"/><path d="m264 360.46875h-16c-4.417969 0-8 3.582031-8 8s3.582031 8 8 8h16c4.417969 0 8-3.582031 8-8s-3.582031-8-8-8zm0 0"/><path d="m472 208.46875h-40c-2.792969 0-5.378906 1.457031-6.832031 3.839844l-51.230469 84.160156h-205.9375v-16c0-4.417969-3.582031-8-8-8h-152c-4.417969 0-8 3.582031-8 8v71c.0390625 35.882812 29.117188 64.960938 65 65h71c7.722656-.027344 15.167969-2.871094 20.945312-8h227.054688c12.964844.050781 24.613281-7.90625 29.28125-20l66.167969-169.101562c.953125-2.460938.636719-5.234376-.855469-7.410157-1.488281-2.179687-3.957031-3.484375-6.59375-3.488281zm-320 176c0 8.835938-7.164062 16-16 16h-71c-27.050781-.03125-48.96875-21.949219-49-49v-31h48c4.417969 0 8-3.582031 8-8s-3.582031-8-8-8h-48v-16h136zm246.398438-1.824219c-2.292969 5.949219-8.023438 9.859375-14.398438 9.824219h-217.136719c.722657-2.605469 1.101563-5.292969 1.136719-8v-72h210.398438c2.792968 0 5.382812-1.453125 6.832031-3.839844l51.265625-84.160156h23.785156zm0 0"/></svg>